<?xml version="1.0" encoding="utf-8"?>
<!-- Generator: Adobe Illustrator 24.1.1, SVG Export Plug-In . SVG Version: 6.00 Build 0)  -->
<svg version="1.1" id="Layer_1" xmlns="http://www.w3.org/2000/svg" xmlns:xlink="http://www.w3.org/1999/xlink" x="0px" y="0px"
	 viewBox="0 0 4269.1 1080" style="enable-background:new 0 0 4269.1 1080;" xml:space="preserve">
<style type="text/css">
	.st0{fill:#FFFFFF;}
	.st1{fill:#7C4D96;}
	.st2{fill:#7C4C95;}
</style>
<g>
	<path class="st0" d="M540,1080L540,1080C241.8,1080,0,838.2,0,540l0,0C0,241.8,241.8,0,540,0l0,0c298.2,0,540,241.8,540,540l0,0
		C1080,838.2,838.2,1080,540,1080z"/>
	<g>
		<path class="st1" d="M539.9,130c55.4,0,109.1,10.8,159.5,32.2c48.8,20.6,92.7,50.2,130.4,87.9s67.3,81.6,87.9,130.4
			C939,431,949.9,484.6,949.9,540c0,55.4-10.8,109.1-32.2,159.5c-20.6,48.8-50.2,92.7-87.9,130.4s-81.6,67.3-130.4,87.9
			C648.9,939.1,595.3,950,539.9,950s-109.1-10.8-159.5-32.2c-48.8-20.6-92.7-50.2-130.4-87.9s-67.3-81.6-87.9-130.4
			C140.8,649,130,595.4,130,540c0-55.4,10.8-109.1,32.2-159.5c20.6-48.8,50.2-92.7,87.9-130.4s81.6-67.3,130.4-87.9
			C430.9,140.8,484.6,130,539.9,130 M539.9,0C241.8,0,0,241.8,0,540s241.8,540,540,540s540-241.8,540-540
			C1079.9,241.8,838.1,0,539.9,0L539.9,0z"/>
	</g>
	<g>
		<g>
			<path class="st2" d="M354.8,769.1c-1.6-1.6-2.4-3.6-2.4-5.9V296.8c0-2.3,0.8-4.2,2.4-5.9c1.6-1.6,3.6-2.4,5.9-2.4h98
				c2.3,0,4.2,0.8,5.9,2.4c1.6,1.6,2.4,3.6,2.4,5.9v179.4c0,1.4,0.5,2.2,1.4,2.4c0.9,0.2,1.8-0.1,2.8-1l139.4-184.2
				c2.8-3.2,6-4.8,9.7-4.8h111.8c4.6,0,6.9,1.6,6.9,4.8c0,1.4-0.7,3.2-2.1,5.5l-149,199.4c-0.9,1.8-1.2,3.5-0.7,4.8l155.9,258.8
				c0.9,2.8,1.4,4.4,1.4,4.8c0,3.2-2.3,4.8-6.9,4.8H627.7c-5.1,0-8.5-1.8-10.4-5.5L509,581.8c-1.4-2.8-3-2.8-4.8,0l-35.9,49
				c-0.9,1.8-1.4,3.2-1.4,4.1v128.3c0,2.3-0.8,4.3-2.4,5.9c-1.6,1.6-3.6,2.4-5.9,2.4h-98C358.3,771.5,356.4,770.7,354.8,769.1z"/>
		</g>
	</g>
</g>
<g>
	<path class="st2" d="M1535.1,89.5h-110.6v313.3h-74.3V89.5h-111.1V23.4h295.9V89.5z"/>
	<path class="st2" d="M1664.7,197.9c-11.2-4-21.3-6-30.4-6c-12.7,0-23.2,3.3-31.7,10c-8.5,6.7-14.2,15.3-17.1,25.7v175.1h-70.5v-271
		h54.7l8.1,35.8h2.2c6.1-13.4,14.4-23.7,24.9-30.9c10.5-7.2,22.8-10.8,36.9-10.8c9.4,0,20.1,2,32,6L1664.7,197.9z"/>
	<path class="st2" d="M1703.7,147.5c14.4-6.5,31.6-11.7,51.5-15.4c19.9-3.8,40.7-5.7,62.3-5.7c18.8,0,34.5,2.3,47.2,6.8
		c12.6,4.5,22.7,10.9,30.1,19.2c7.4,8.3,12.6,18.3,15.7,29.8c3.1,11.6,4.6,24.6,4.6,39c0,15.9-0.5,31.9-1.6,48
		c-1.1,16.1-1.7,31.9-1.9,47.4c-0.2,15.5,0.3,30.6,1.4,45.3c1.1,14.6,3.8,28.5,8.1,41.5h-57.5l-11.4-37.4h-2.7
		c-7.2,11.2-17.3,20.9-30.1,29c-12.8,8.1-29.4,12.2-49.6,12.2c-12.7,0-24-1.9-34.1-5.7c-10.1-3.8-18.8-9.2-26-16.3
		c-7.2-7-12.8-15.4-16.8-24.9c-4-9.6-6-20.3-6-32.2c0-16.6,3.7-30.6,11.1-42c7.4-11.4,18.1-20.6,32-27.6c13.9-7,30.5-11.9,49.9-14.6
		c19.3-2.7,40.9-3.5,64.8-2.4c2.5-20.2,1.1-34.8-4.3-43.6c-5.4-8.9-17.5-13.3-36.3-13.3c-14.1,0-29,1.4-44.7,4.3
		c-15.7,2.9-28.6,6.7-38.8,11.4L1703.7,147.5z M1793.1,349.1c14.1,0,25.3-3.2,33.6-9.5c8.3-6.3,14.4-13.1,18.4-20.3v-35.2
		c-11.2-1.1-22-1.3-32.2-0.5c-10.3,0.7-19.4,2.4-27.4,4.9c-8,2.5-14.3,6.1-19,10.8c-4.7,4.7-7,10.7-7,17.9c0,10.1,3,18,8.9,23.6
		C1774.4,346.3,1782.6,349.1,1793.1,349.1z"/>
	<path class="st2" d="M2140,402.8V248.9c0-22-3.2-37.9-9.5-47.7c-6.3-9.8-17.1-14.6-32.2-14.6c-13.4,0-24.7,3.9-33.9,11.7
		c-9.2,7.8-15.8,17.4-19.8,29v175.6h-70.5v-271h55.8l8.1,35.8h2.2c8.3-11.6,19.3-21.7,33.1-30.4c13.7-8.7,31.4-13,53.1-13
		c13.4,0,25.3,1.8,35.8,5.4c10.5,3.6,19.3,9.6,26.6,17.9c7.2,8.3,12.6,19.6,16.3,33.9c3.6,14.3,5.4,31.9,5.4,52.8v168.6H2140z"/>
	<path class="st2" d="M2381.7,328c0-7.2-3.1-13-9.2-17.3c-6.1-4.3-13.7-8.3-22.8-11.9c-9-3.6-19-7.3-29.8-11.1
		c-10.8-3.8-20.8-9-29.8-15.7c-9-6.7-16.6-15.2-22.8-25.5c-6.1-10.3-9.2-23.6-9.2-39.8c0-26.7,7.9-47.2,23.8-61.2
		c15.9-14.1,38.8-21.1,68.8-21.1c20.6,0,39.2,2.2,55.8,6.5c16.6,4.3,29.6,9.2,39,14.6l-15.7,50.9c-8.3-3.3-18.8-6.7-31.4-10.3
		c-12.7-3.6-25.5-5.4-38.5-5.4c-21,0-31.4,8.1-31.4,24.4c0,6.5,3.1,11.7,9.2,15.7c6.1,4,13.7,7.7,22.8,11.1c9,3.4,19,7.1,29.8,11.1
		c10.8,4,20.8,9.1,29.8,15.4c9,6.3,16.6,14.5,22.8,24.7c6.1,10.1,9.2,23.1,9.2,39c0,27.5-8.8,49.1-26.3,64.8
		c-17.5,15.7-43.8,23.6-78.9,23.6c-19.2,0-37.1-2.4-53.9-7.3c-16.8-4.9-30.4-10.6-40.9-17.1l19.5-52.6c8.3,4.7,19.3,9.3,33.1,13.8
		c13.7,4.5,27.8,6.8,42.3,6.8c10.5,0,18.9-2,25.2-6C2378.6,344.1,2381.7,337.4,2381.7,328z"/>
	<path class="st2" d="M2498.3,131.8h51.5l8.1,32.5h2.2c9.4-13.7,20.5-23.8,33.3-30.4c12.8-6.5,28.5-9.8,46.9-9.8
		c34,0,59.4,10.8,76.4,32.2c17,21.5,25.5,56.1,25.5,103.8c0,23.1-2.7,44-8.1,62.6c-5.4,18.6-13.5,34.4-24.1,47.4
		c-10.7,13-23.7,23-39,29.8c-15.4,6.9-33,10.3-52.8,10.3c-11.2,0-20.4-0.8-27.6-2.4c-7.2-1.6-14.5-4.3-21.7-7.9v111.1h-70.5V131.8z
		 M2619.1,183.8c-13.7,0-24.5,3.4-32.2,10.3c-7.8,6.9-13.8,17.2-18.2,30.9v112.7c5.1,4,10.6,7.1,16.5,9.5c6,2.4,13.8,3.5,23.6,3.5
		c20.2,0,35.4-7.1,45.5-21.4c10.1-14.3,15.2-37.8,15.2-70.7c0-23.8-4-42.3-11.9-55.3C2649.7,190.3,2636.8,183.8,2619.1,183.8z"/>
	<path class="st2" d="M2777.9,267.3c0-45.9,11.2-81.2,33.6-106c22.4-24.7,53.8-37.1,94.3-37.1c21.7,0,40.5,3.4,56.4,10.3
		c15.9,6.9,29.1,16.5,39.6,29c10.5,12.5,18.3,27.6,23.6,45.3c5.2,17.7,7.9,37.2,7.9,58.5c0,45.9-11.1,81.2-33.3,106
		c-22.2,24.8-53.6,37.1-94,37.1c-21.7,0-40.5-3.4-56.4-10.3c-15.9-6.9-29.2-16.5-39.8-29c-10.7-12.5-18.6-27.5-23.8-45.3
		C2780.5,308.1,2777.9,288.6,2777.9,267.3z M2850.6,267.3c0,11.9,1.1,23,3.3,33.1c2.2,10.1,5.4,19,9.8,26.6
		c4.3,7.6,10,13.5,17.1,17.6c7,4.2,15.4,6.2,25.2,6.2c18.4,0,32.2-6.7,41.2-20.1c9-13.4,13.5-34.5,13.5-63.4
		c0-24.9-4.2-45.1-12.5-60.4c-8.3-15.4-22.4-23-42.3-23c-17.3,0-30.9,6.5-40.6,19.5C2855.4,216.4,2850.6,237.7,2850.6,267.3z"/>
	<path class="st2" d="M3231.6,197.9c-11.2-4-21.3-6-30.4-6c-12.7,0-23.2,3.3-31.7,10c-8.5,6.7-14.2,15.3-17.1,25.7v175.1H3082v-271
		h54.7l8.1,35.8h2.2c6.1-13.4,14.4-23.7,24.9-30.9c10.5-7.2,22.8-10.8,36.9-10.8c9.4,0,20.1,2,32,6L3231.6,197.9z"/>
	<path class="st2" d="M3260.3,131.8h37.4V80.9l70.5-20.1v71h66.1v59.6h-66.1v104.1c0,18.8,1.9,32.2,5.7,40.4s10.9,12.2,21.4,12.2
		c7.2,0,13.5-0.7,18.7-2.2c5.2-1.4,11.1-3.6,17.6-6.5l12.5,54.2c-9.8,4.7-21.1,8.7-34.1,11.9s-26.2,4.9-39.6,4.9
		c-24.9,0-43.3-6.4-55-19.2c-11.7-12.8-17.6-33.9-17.6-63.1V191.4h-37.4V131.8z"/>
	<path class="st2" d="M3589.8,131.8h37.4v-15.2c0-34.3,7.2-59.2,21.7-74.5c14.4-15.4,35.4-23,62.9-23c28.9,0,52.9,3.4,72.1,10.3
		l-13.5,56.4c-8.3-2.9-15.6-4.8-22-5.7c-6.3-0.9-12.9-1.4-19.8-1.4c-7.2,0-12.9,1.1-17.1,3.3c-4.2,2.2-7.2,5.5-9.2,10
		c-2,4.5-3.3,10.1-3.8,16.8c-0.5,6.7-0.8,14.4-0.8,23h59.6v59.6h-59.6v211.4h-70.5V191.4h-37.4V131.8z"/>
	<path class="st2" d="M3773,267.3c0-45.9,11.2-81.2,33.6-106c22.4-24.7,53.8-37.1,94.3-37.1c21.7,0,40.5,3.4,56.4,10.3
		c15.9,6.9,29.1,16.5,39.6,29c10.5,12.5,18.3,27.6,23.6,45.3c5.2,17.7,7.9,37.2,7.9,58.5c0,45.9-11.1,81.2-33.3,106
		c-22.2,24.8-53.6,37.1-94,37.1c-21.7,0-40.5-3.4-56.4-10.3c-15.9-6.9-29.2-16.5-39.8-29c-10.7-12.5-18.6-27.5-23.8-45.3
		C3775.6,308.1,3773,288.6,3773,267.3z M3845.7,267.3c0,11.9,1.1,23,3.3,33.1c2.2,10.1,5.4,19,9.8,26.6c4.3,7.6,10,13.5,17.1,17.6
		c7,4.2,15.4,6.2,25.2,6.2c18.4,0,32.2-6.7,41.2-20.1c9-13.4,13.5-34.5,13.5-63.4c0-24.9-4.2-45.1-12.5-60.4
		c-8.3-15.4-22.4-23-42.3-23c-17.3,0-30.9,6.5-40.6,19.5C3850.5,216.4,3845.7,237.7,3845.7,267.3z"/>
	<path class="st2" d="M4226.7,197.9c-11.2-4-21.3-6-30.4-6c-12.7,0-23.2,3.3-31.7,10c-8.5,6.7-14.2,15.3-17.1,25.7v175.1h-70.5v-271
		h54.7l8.1,35.8h2.2c6.1-13.4,14.4-23.7,24.9-30.9c10.5-7.2,22.8-10.8,36.9-10.8c9.4,0,20.1,2,32,6L4226.7,197.9z"/>
	<path class="st2" d="M1359.5,891.1H1340v162.1h-74.3V673.8h74.3v168l17.3-7.6L1462,673.8h84.6L1436,833.1l-29.3,20.6l30.4,21.1
		l126.3,178.3h-91.6L1359.5,891.1z"/>
	<path class="st2" d="M1791,1029.9c-10.8,8.7-25.6,16-44.2,22c-18.6,6-38.4,8.9-59.3,8.9c-43.7,0-75.7-12.7-95.9-38.2
		c-20.2-25.5-30.4-60.4-30.4-104.9c0-47.7,11.4-83.5,34.1-107.3c22.8-23.8,54.7-35.8,95.9-35.8c13.7,0,27.1,1.8,40.1,5.4
		c13,3.6,24.6,9.6,34.7,17.9c10.1,8.3,18.2,19.5,24.4,33.6c6.1,14.1,9.2,31.6,9.2,52.6c0,7.6-0.5,15.7-1.4,24.4s-2.3,17.7-4,27.1
		h-162.1c1.1,22.8,6.9,39.9,17.6,51.5c10.6,11.6,27.8,17.3,51.6,17.3c14.8,0,28-2.3,39.7-6.8c11.7-4.5,20.6-9.1,26.7-13.8
		L1791,1029.9z M1690.4,831c-18.3,0-31.9,5.5-40.7,16.5c-8.8,11-14.1,25.7-15.9,44.2h100.3c1.4-19.5-1.5-34.5-8.9-45
		C1717.8,836.2,1706.2,831,1690.4,831z"/>
	<path class="st2" d="M2079.8,957.8c0,15.2,0.2,30.4,0.5,45.5c0.4,15.2,2,32,4.9,50.4h-50.4l-9.8-35.2h-2.2
		c-7.2,12.7-17.6,22.9-31.2,30.6c-13.5,7.8-29.5,11.7-48,11.7c-34,0-60.3-11.2-79.1-33.6c-18.8-22.4-28.2-57.5-28.2-105.1
		c0-46.2,10.5-82.2,31.4-107.9c21-25.7,51.7-38.5,92.1-38.5c11.2,0,20.4,0.6,27.6,1.9c7.2,1.3,14.4,3.3,21.7,6.2v-110h70.5V957.8z
		 M1960.1,1001.2c13.7,0,24.6-3.3,32.5-10c7.9-6.7,13.5-16.3,16.8-29V847.2c-5.1-4-10.7-7-16.8-8.9c-6.1-2-14.1-3-23.8-3
		c-19.9,0-34.8,6.7-44.7,20.1c-9.9,13.4-14.9,36.3-14.9,68.8c0,23.1,4.1,41.7,12.2,55.8S1942.4,1001.2,1960.1,1001.2z"/>
	<path class="st2" d="M2137.3,705.8c0-10.5,3.9-19.4,11.7-26.8c7.8-7.4,18.5-11.1,32.2-11.1c13.7,0,24.8,3.7,33.3,11.1
		c8.5,7.4,12.7,16.4,12.7,26.8c0,10.5-4.3,19.2-12.7,26.3c-8.5,7-19.6,10.6-33.3,10.6c-13.7,0-24.5-3.5-32.2-10.6
		C2141.2,725,2137.3,716.3,2137.3,705.8z M2147.6,782.2h70.5v271h-70.5V782.2z"/>
	<path class="st2" d="M2437,848.3c-11.2-4-21.3-6-30.4-6c-12.7,0-23.2,3.3-31.7,10c-8.5,6.7-14.2,15.3-17.1,25.7v175.1h-70.5v-271
		h54.7l8.1,35.8h2.2c6.1-13.4,14.4-23.7,24.9-30.9c10.5-7.2,22.8-10.8,36.9-10.8c9.4,0,20.1,2,32,6L2437,848.3z"/>
	<path class="st2" d="M2473.3,705.8c0-10.5,3.9-19.4,11.7-26.8c7.8-7.4,18.5-11.1,32.2-11.1c13.7,0,24.8,3.7,33.3,11.1
		c8.5,7.4,12.7,16.4,12.7,26.8c0,10.5-4.3,19.2-12.7,26.3c-8.5,7-19.6,10.6-33.3,10.6c-13.7,0-24.5-3.5-32.2-10.6
		C2477.2,725,2473.3,716.3,2473.3,705.8z M2483.6,782.2h70.5v271h-70.5V782.2z"/>
</g>
</svg>
