<?xml version="1.0" encoding="utf-8"?>
<!-- Generator: Adobe Illustrator 24.1.1, SVG Export Plug-In . SVG Version: 6.00 Build 0)  -->
<svg version="1.1" id="Layer_1" xmlns="http://www.w3.org/2000/svg" xmlns:xlink="http://www.w3.org/1999/xlink" x="0px" y="0px"
	 viewBox="0 0 1080 1080" style="enable-background:new 0 0 1080 1080;" xml:space="preserve">
<style type="text/css">
	.st0{fill:#FFFFFF;}
	.st1{fill:#7C4D96;}
	.st2{fill:#7C4C95;}
</style>
<g>
	<path class="st0" d="M540,1080L540,1080C241.8,1080,0,838.2,0,540l0,0C0,241.8,241.8,0,540,0l0,0c298.2,0,540,241.8,540,540l0,0
		C1080,838.2,838.2,1080,540,1080z"/>
	<g>
		<path class="st1" d="M539.9,130c55.4,0,109.1,10.8,159.5,32.2c48.8,20.6,92.7,50.2,130.4,87.9s67.3,81.6,87.9,130.4
			C939,431,949.9,484.6,949.9,540c0,55.4-10.8,109.1-32.2,159.5c-20.6,48.8-50.2,92.7-87.9,130.4s-81.6,67.3-130.4,87.9
			C648.9,939.1,595.3,950,539.9,950s-109.1-10.8-159.5-32.2c-48.8-20.6-92.7-50.2-130.4-87.9s-67.3-81.6-87.9-130.4
			C140.8,649,130,595.4,130,540c0-55.4,10.8-109.1,32.2-159.5c20.6-48.8,50.2-92.7,87.9-130.4s81.6-67.3,130.4-87.9
			C430.9,140.8,484.6,130,539.9,130 M539.9,0C241.8,0,0,241.8,0,540s241.8,540,540,540s540-241.8,540-540
			C1079.9,241.8,838.1,0,539.9,0L539.9,0z"/>
	</g>
	<g>
		<g>
			<path class="st2" d="M354.8,769.1c-1.6-1.6-2.4-3.6-2.4-5.9V296.8c0-2.3,0.8-4.2,2.4-5.9c1.6-1.6,3.6-2.4,5.9-2.4h98
				c2.3,0,4.2,0.8,5.9,2.4c1.6,1.6,2.4,3.6,2.4,5.9v179.4c0,1.4,0.5,2.2,1.4,2.4c0.9,0.2,1.8-0.1,2.8-1l139.4-184.2
				c2.8-3.2,6-4.8,9.7-4.8h111.8c4.6,0,6.9,1.6,6.9,4.8c0,1.4-0.7,3.2-2.1,5.5l-149,199.4c-0.9,1.8-1.2,3.5-0.7,4.8l155.9,258.8
				c0.9,2.8,1.4,4.4,1.4,4.8c0,3.2-2.3,4.8-6.9,4.8H627.7c-5.1,0-8.5-1.8-10.4-5.5L509,581.8c-1.4-2.8-3-2.8-4.8,0l-35.9,49
				c-0.9,1.8-1.4,3.2-1.4,4.1v128.3c0,2.3-0.8,4.3-2.4,5.9c-1.6,1.6-3.6,2.4-5.9,2.4h-98C358.3,771.5,356.4,770.7,354.8,769.1z"/>
		</g>
	</g>
</g>
</svg>
